<?xml version="1.0" encoding="UTF-8"?>
<svg xmlns="http://www.w3.org/2000/svg" style="width:92px" xmlns:xlink="http://www.w3.org/1999/xlink" id="uuid-f5bb1f00-0ee5-4c97-933c-5de8e9848643" data-name="uuid-ec2a84fd-692e-430f-b792-fbee0c7b9b86" viewBox="0 0 279 176">
  <defs>
    <style>
      .uuid-94d2e5fa-ac8c-4199-a910-c5cc3f7810a6 {
        fill: #fff;
      }

      .uuid-965c6ef5-58ad-4619-8d6b-7fe50bd82096 {
        fill: #008ad1;
      }

      .uuid-7ae5ebd0-4020-4da8-a52a-f3a1deda397b {
        fill: url(#uuid-a41f848e-decc-4588-bf74-1e15e48b5339);
      }
    </style>
    <radialGradient id="uuid-a41f848e-decc-4588-bf74-1e15e48b5339" data-name="Nouvelle nuance de dégradé 3" cx="61.07" cy="106.34" fx="61.07" fy="106.34" r="172.03" gradientUnits="userSpaceOnUse">
      <stop offset="0" stop-color="#05baee"></stop>
      <stop offset=".13" stop-color="#03aee7"></stop>
      <stop offset=".42" stop-color="#019ada"></stop>
      <stop offset=".71" stop-color="#008ed3"></stop>
      <stop offset="1" stop-color="#008ad1"></stop>
    </radialGradient>
  </defs>
  <path class="uuid-7ae5ebd0-4020-4da8-a52a-f3a1deda397b" d="m88.79,108.53h100.24c18.85,0,34.14-15.28,34.14-34.13v-30.07c0-2.24-1.82-4.06-4.06-4.06H87.91c-17.39,0-32.07,16.29-32.07,34.14s14.59,34.13,32.07,34.13h.87Z"></path>
  <g>
    <path class="uuid-965c6ef5-58ad-4619-8d6b-7fe50bd82096" d="m81.91,114.18c0-.87.67-1.54,1.54-1.54s1.57.67,1.57,1.54v6.05c1-1.41,2.42-2.55,4.63-2.55,3.19,0,6.3,2.52,6.3,7.05v.05c0,4.5-3.09,7.05-6.3,7.05-2.26,0-3.68-1.13-4.63-2.39v.69c0,.85-.69,1.54-1.57,1.54s-1.54-.69-1.54-1.54v-15.95m10.88,10.6v-.05c0-2.62-1.78-4.35-3.88-4.35s-3.97,1.75-3.97,4.35v.05c0,2.6,1.86,4.35,3.97,4.35s3.88-1.67,3.88-4.35Z"></path>
    <path class="uuid-965c6ef5-58ad-4619-8d6b-7fe50bd82096" d="m98.58,135.35c-.46-.15-.97-.54-.97-1.29s.59-1.29,1.25-1.29c.26,0,.41.05.57.11.36.1.64.18,1.08.18.92,0,1.41-.39,1.93-1.44l.1-.29-5.04-11.27c-.1-.23-.18-.54-.18-.74,0-.88.67-1.52,1.54-1.52.8,0,1.24.46,1.52,1.18l3.65,9.03,3.39-9.03c.26-.64.69-1.18,1.49-1.18s1.49.64,1.49,1.46c0,.26-.08.59-.13.75l-4.96,11.91c-1.16,2.78-2.39,3.8-4.58,3.8-.87,0-1.52-.13-2.16-.38"></path>
    <path class="uuid-965c6ef5-58ad-4619-8d6b-7fe50bd82096" d="m114.77,122.63v-.05c0-5.11,3.83-9.31,9.28-9.31,2.78,0,4.61.82,6.17,2.03.34.26.62.69.62,1.26,0,.87-.7,1.55-1.57,1.55-.44,0-.74-.16-.95-.31-1.23-1-2.57-1.62-4.3-1.62-3.42,0-5.94,2.83-5.94,6.35v.05c0,3.53,2.5,6.38,5.94,6.38,1.9,0,3.19-.62,4.5-1.73.23-.2.57-.36.95-.36.8,0,1.49.67,1.49,1.46,0,.49-.23.88-.52,1.13-1.7,1.49-3.63,2.42-6.53,2.42-5.25,0-9.16-4.09-9.16-9.26"></path>
    <path class="uuid-965c6ef5-58ad-4619-8d6b-7fe50bd82096" d="m132.67,124.86v-.05c0-3.88,3.08-7.1,7.25-7.1s7.23,3.17,7.23,7.05v.05c0,3.86-3.09,7.08-7.28,7.08s-7.2-3.16-7.2-7.02m11.37,0v-.05c0-2.39-1.72-4.37-4.17-4.37s-4.09,1.95-4.09,4.32v.05c0,2.37,1.72,4.35,4.14,4.35s4.12-1.96,4.12-4.3Z"></path>
    <path class="uuid-965c6ef5-58ad-4619-8d6b-7fe50bd82096" d="m150.5,120.67h-.54c-.72,0-1.31-.57-1.31-1.29s.59-1.31,1.31-1.31h.54v-1c0-1.49.39-2.62,1.11-3.34.72-.72,1.72-1.08,3.06-1.08.61,0,1.13.05,1.57.13.57.08,1.08.59,1.08,1.28,0,.72-.59,1.31-1.31,1.29-.18-.03-.44-.05-.64-.05-1.18,0-1.79.64-1.79,2.06v.75h2.42c.75,0,1.31.56,1.31,1.29s-.6,1.29-1.31,1.29h-2.37v9.49c0,.85-.7,1.54-1.57,1.54s-1.54-.69-1.54-1.54v-9.49m8.93-6.33c0-.92.77-1.52,1.77-1.52s1.78.59,1.78,1.52v.16c0,.93-.77,1.54-1.78,1.54s-1.77-.62-1.77-1.54v-.16Zm.23,5.07c0-.87.67-1.57,1.54-1.57s1.57.7,1.57,1.57v10.75c0,.87-.69,1.54-1.57,1.54s-1.54-.67-1.54-1.54v-10.75Z"></path>
    <path class="uuid-965c6ef5-58ad-4619-8d6b-7fe50bd82096" d="m179.67,130.16c0,.87-.7,1.54-1.54,1.54s-1.57-.67-1.57-1.54v-.85c-1,1.41-2.42,2.54-4.63,2.54-3.19,0-6.3-2.54-6.3-7.05v-.05c0-4.5,3.06-7.05,6.3-7.05,2.24,0,3.65,1.1,4.63,2.39v-5.89c0-.87.7-1.54,1.55-1.54s1.57.67,1.57,1.54v15.95m-10.91-5.41v.05c0,2.62,1.8,4.35,3.9,4.35s3.94-1.75,3.94-4.35v-.05c0-2.62-1.85-4.35-3.94-4.35s-3.9,1.65-3.9,4.35Z"></path>
    <path class="uuid-965c6ef5-58ad-4619-8d6b-7fe50bd82096" d="m183.01,114.34c0-.92.77-1.52,1.77-1.52s1.77.59,1.77,1.52v.16c0,.93-.77,1.54-1.77,1.54s-1.77-.62-1.77-1.54v-.16m.23,5.07c0-.87.67-1.57,1.54-1.57s1.57.7,1.57,1.57v10.75c0,.87-.69,1.54-1.57,1.54s-1.54-.67-1.54-1.54v-10.75Z"></path>
    <path class="uuid-965c6ef5-58ad-4619-8d6b-7fe50bd82096" d="m189.4,130.21c-.34-.18-.59-.56-.59-1.08,0-.69.54-1.26,1.26-1.26.26,0,.49.08.67.18,1.31.88,2.68,1.32,3.92,1.32,1.34,0,2.11-.57,2.11-1.47v-.05c0-1.06-1.44-1.41-3.04-1.9-2-.57-4.24-1.39-4.24-3.99v-.05c0-2.57,2.13-4.14,4.83-4.14,1.44,0,2.96.41,4.27,1.11.44.23.75.65.75,1.19,0,.72-.57,1.26-1.29,1.26-.26,0-.41-.05-.62-.16-1.11-.56-2.24-.92-3.19-.92-1.21,0-1.9.57-1.9,1.34v.05c0,1.01,1.47,1.42,3.06,1.93,1.98.62,4.22,1.52,4.22,3.96v.05c0,2.86-2.21,4.27-5.04,4.27-1.73,0-3.6-.53-5.17-1.62"></path>
  </g>
  <g>
    <path class="uuid-94d2e5fa-ac8c-4199-a910-c5cc3f7810a6" d="m81.88,88.57c-.52-.42-.94-1.22-.94-2.06,0-1.5,1.27-2.77,2.77-2.77.84,0,1.45.33,1.92.75,2.06,2.06,4.41,3.14,7.46,3.14,3.24,0,5.68-1.97,5.68-4.97v-.09c0-3.24-2.96-5.07-7.55-5.07h-1.17c-1.36,0-2.49-1.13-2.49-2.49,0-.75.33-1.45,1.22-2.35l7.69-8.21h-11.92c-1.41,0-2.53-1.13-2.53-2.49s1.13-2.53,2.53-2.53h16.8c1.64,0,2.86.99,2.86,2.53,0,1.36-.66,2.16-1.64,3.14l-7.74,8.02c4.97.61,9.67,3.14,9.67,9.2v.09c0,6.05-4.65,10.42-11.5,10.42-4.83,0-8.45-1.69-11.12-4.27Z"></path>
    <path class="uuid-94d2e5fa-ac8c-4199-a910-c5cc3f7810a6" d="m110.45,83.84l7.04-8.45-6.52-7.74c-.61-.75-.94-1.41-.94-2.16,0-1.6,1.22-2.63,2.63-2.63,1.13,0,1.92.52,2.63,1.41l5.58,7.32,5.68-7.27c.66-.84,1.45-1.45,2.44-1.45,1.5,0,2.67,1.08,2.67,2.49,0,.8-.33,1.36-.8,1.92l-6.71,8.02,6.94,8.21c.61.75.94,1.41.94,2.16,0,1.6-1.22,2.63-2.63,2.63-1.13,0-1.92-.52-2.63-1.45l-6.01-7.74-6.01,7.74c-.66.8-1.45,1.45-2.49,1.45-1.45,0-2.63-1.08-2.63-2.49,0-.8.28-1.41.8-1.97Z"></path>
    <path class="uuid-94d2e5fa-ac8c-4199-a910-c5cc3f7810a6" d="m137.06,75.94v-.09c0-9.34,6.99-16.99,16.94-16.99,5.07,0,8.4,1.5,11.26,3.71.61.47,1.13,1.27,1.13,2.3,0,1.6-1.27,2.82-2.86,2.82-.8,0-1.36-.28-1.74-.56-2.25-1.83-4.69-2.96-7.84-2.96-6.24,0-10.84,5.16-10.84,11.59v.09c0,6.43,4.55,11.64,10.84,11.64,3.47,0,5.82-1.13,8.21-3.14.42-.38,1.03-.66,1.74-.66,1.45,0,2.72,1.22,2.72,2.67,0,.89-.42,1.6-.94,2.06-3.1,2.72-6.62,4.41-11.92,4.41-9.57,0-16.7-7.46-16.7-16.89Z"></path>
    <path class="uuid-94d2e5fa-ac8c-4199-a910-c5cc3f7810a6" d="m173.13,62.34c0-1.64,1.27-2.91,2.91-2.91h11.82c3.75,0,6.71,1.03,8.59,2.91,1.45,1.45,2.21,3.24,2.21,5.44v.09c0,3.94-2.25,6.05-4.69,7.32,3.85,1.31,6.52,3.52,6.52,7.98v.09c0,5.87-4.83,9.01-12.15,9.01h-12.29c-1.64,0-2.91-1.27-2.91-2.91v-27.03Zm13.56,10.93c3.71,0,6.19-1.45,6.19-4.46v-.09c0-2.58-2.06-4.18-5.77-4.18h-8.3v8.73h7.88Zm1.69,13.89c3.94,0,6.33-1.55,6.33-4.5v-.09c0-2.77-2.21-4.41-6.76-4.41h-9.15v9.01h9.57Z"></path>
  </g>
</svg>
