<?xml version="1.0" encoding="UTF-8"?>
<svg xmlns="http://www.w3.org/2000/svg" style="width:92px" xmlns:xlink="http://www.w3.org/1999/xlink" width="279" height="176" viewBox="0 0 279 176">
  <defs>
    <style>.a{fill:url(#a);}.b{fill:#008ad1;}.c{fill:#fff;}</style>
    <radialGradient id="a" cx="58.97" cy="108.33" r="176.37" gradientUnits="userSpaceOnUse">
      <stop offset="0" stop-color="#05baee"></stop>
      <stop offset="0.13" stop-color="#04afe7"></stop>
      <stop offset="0.42" stop-color="#029adb"></stop>
      <stop offset="0.71" stop-color="#008ed3"></stop>
      <stop offset="1" stop-color="#008ad1"></stop>
    </radialGradient>
  </defs>
  <path class="a" d="M88.79,108.53H189A34.13,34.13,0,0,0,223.16,74.4V44.32a4.06,4.06,0,0,0-4.06-4.06H87.91c-17.39,0-32.07,16.29-32.07,34.14s14.58,34.13,32.07,34.13Z"></path>
  <path class="b" d="M81.91,114.18a1.52,1.52,0,0,1,1.54-1.54A1.53,1.53,0,0,1,85,114.18v6a5.48,5.48,0,0,1,4.64-2.55c3.18,0,6.3,2.53,6.3,7v0c0,4.51-3.09,7.05-6.3,7.05A5.57,5.57,0,0,1,85,129.44v.7a1.56,1.56,0,0,1-3.11,0v-16m10.89,10.6v0a4,4,0,0,0-3.89-4.35,4.1,4.1,0,0,0-4,4.35v0a4.09,4.09,0,0,0,4,4.35C91.05,129.13,92.8,127.46,92.8,124.78Z"></path>
  <path class="b" d="M98.58,135.35a1.32,1.32,0,0,1-1-1.28,1.26,1.26,0,0,1,1.26-1.29,1.35,1.35,0,0,1,.56.11,3.64,3.64,0,0,0,1.08.18c.93,0,1.42-.39,1.93-1.44l.1-.29-5-11.27a2.05,2.05,0,0,1-.18-.74,1.5,1.5,0,0,1,1.55-1.52,1.57,1.57,0,0,1,1.52,1.18l3.65,9,3.39-9a1.6,1.6,0,0,1,1.49-1.18,1.48,1.48,0,0,1,1.5,1.47,2.74,2.74,0,0,1-.13.74l-5,11.91c-1.16,2.78-2.39,3.81-4.57,3.81a5.5,5.5,0,0,1-2.17-.39"></path>
  <path class="b" d="M114.77,122.63v-.06a9.11,9.11,0,0,1,9.28-9.31,9.4,9.4,0,0,1,6.17,2,1.56,1.56,0,0,1,.62,1.26,1.54,1.54,0,0,1-1.57,1.55,1.57,1.57,0,0,1-1-.31,6.48,6.48,0,0,0-4.29-1.62,6.07,6.07,0,0,0-6,6.35v0a6.07,6.07,0,0,0,6,6.38,6.49,6.49,0,0,0,4.5-1.72,1.42,1.42,0,0,1,.95-.36,1.5,1.5,0,0,1,1.49,1.46,1.55,1.55,0,0,1-.51,1.14,9.26,9.26,0,0,1-6.54,2.41,9.05,9.05,0,0,1-9.15-9.25"></path>
  <path class="b" d="M132.67,124.86v0a7.24,7.24,0,0,1,14.48,0v0a7.24,7.24,0,0,1-14.48,0m11.37,0v0a4.19,4.19,0,0,0-4.16-4.37,4.08,4.08,0,0,0-4.1,4.32v0a4.19,4.19,0,0,0,4.14,4.35A4.08,4.08,0,0,0,144,124.86Z"></path>
  <path class="b" d="M150.5,120.67H150a1.3,1.3,0,0,1-1.31-1.29,1.31,1.31,0,0,1,1.31-1.31h.54v-1a4.51,4.51,0,0,1,1.11-3.34,4.06,4.06,0,0,1,3.06-1.09,8.67,8.67,0,0,1,1.56.13,1.29,1.29,0,0,1,1.08,1.29,1.27,1.27,0,0,1-1.31,1.28,6.16,6.16,0,0,0-.64,0c-1.18,0-1.8.65-1.8,2.06v.75H156a1.28,1.28,0,0,1,1.31,1.28,1.3,1.3,0,0,1-1.31,1.29h-2.37v9.49a1.56,1.56,0,0,1-3.11,0v-9.49m8.93-6.33a1.79,1.79,0,0,1,3.54,0v.15a1.79,1.79,0,0,1-3.54,0Zm.23,5.07a1.53,1.53,0,0,1,1.54-1.57,1.57,1.57,0,0,1,1.57,1.57v10.75a1.56,1.56,0,0,1-3.11,0Z"></path>
  <path class="b" d="M179.67,130.16a1.56,1.56,0,0,1-3.11,0v-.85a5.44,5.44,0,0,1-4.63,2.55c-3.19,0-6.31-2.55-6.31-7.05v0c0-4.5,3.07-7.05,6.31-7.05a5.56,5.56,0,0,1,4.63,2.39v-5.89a1.56,1.56,0,0,1,3.11,0v16m-10.9-5.4v0a4,4,0,0,0,3.9,4.35,4.09,4.09,0,0,0,3.94-4.35v0a4.08,4.08,0,0,0-3.94-4.35C170.54,120.41,168.77,122.06,168.77,124.76Z"></path>
  <path class="b" d="M183,114.34a1.79,1.79,0,0,1,3.54,0v.15a1.79,1.79,0,0,1-3.54,0v-.15m.23,5.07a1.53,1.53,0,0,1,1.54-1.57,1.56,1.56,0,0,1,1.57,1.57v10.75a1.56,1.56,0,0,1-3.11,0Z"></path>
  <path class="b" d="M189.4,130.21a1.17,1.17,0,0,1-.59-1.08,1.24,1.24,0,0,1,1.25-1.26,1.39,1.39,0,0,1,.67.18,7.13,7.13,0,0,0,3.91,1.31c1.34,0,2.11-.56,2.11-1.47v0c0-1.06-1.44-1.42-3-1.91-2-.56-4.24-1.38-4.24-4v0c0-2.57,2.14-4.14,4.84-4.14a9.27,9.27,0,0,1,4.27,1.11,1.33,1.33,0,0,1,.75,1.18,1.26,1.26,0,0,1-1.29,1.26,1.17,1.17,0,0,1-.62-.16,7.5,7.5,0,0,0-3.19-.92c-1.21,0-1.9.57-1.9,1.34v.05c0,1,1.46,1.42,3.06,1.93,2,.62,4.22,1.52,4.22,4v0c0,2.86-2.22,4.27-5,4.27a9.25,9.25,0,0,1-5.17-1.62"></path>
  <path class="c" d="M95.71,84.91H81a2.72,2.72,0,0,1-2.81-2.72,4.47,4.47,0,0,1,1.27-3l15.43-18.3A4.09,4.09,0,0,1,98.43,59a2.79,2.79,0,0,1,2.82,2.77V80.17h2.53a2.37,2.37,0,0,1,2.39,2.39,2.34,2.34,0,0,1-2.39,2.35h-2.53v4.88a2.77,2.77,0,0,1-5.54,0Zm0-4.74v-13l-10.79,13Z"></path>
  <path class="c" d="M111.42,83.84l7-8.44-6.52-7.74A3.41,3.41,0,0,1,111,65.5a2.56,2.56,0,0,1,2.63-2.63,3.2,3.2,0,0,1,2.63,1.41l5.58,7.32,5.68-7.28A3.18,3.18,0,0,1,130,62.87a2.55,2.55,0,0,1,2.67,2.49,2.86,2.86,0,0,1-.8,1.92l-6.71,8,6.95,8.21a3.41,3.41,0,0,1,.94,2.16,2.56,2.56,0,0,1-2.63,2.63,3.15,3.15,0,0,1-2.63-1.45l-6-7.75-6,7.75a3.33,3.33,0,0,1-2.49,1.45,2.53,2.53,0,0,1-2.62-2.49A2.81,2.81,0,0,1,111.42,83.84Z"></path>
  <path class="c" d="M138,75.94v-.09a16.61,16.61,0,0,1,16.93-17,17.29,17.29,0,0,1,11.27,3.7,2.91,2.91,0,0,1,1.12,2.3,2.81,2.81,0,0,1-2.86,2.82,2.85,2.85,0,0,1-1.74-.57,11.89,11.89,0,0,0-7.83-3c-6.24,0-10.84,5.16-10.84,11.59v.09c0,6.43,4.55,11.64,10.84,11.64a11.76,11.76,0,0,0,8.21-3.15,2.64,2.64,0,0,1,1.73-.65,2.75,2.75,0,0,1,2.73,2.67,2.81,2.81,0,0,1-.94,2.07,16.8,16.8,0,0,1-11.92,4.41A16.52,16.52,0,0,1,138,75.94Z"></path>
  <path class="c" d="M174.1,62.34A2.87,2.87,0,0,1,177,59.43h11.83c3.75,0,6.71,1,8.58,2.91a7.33,7.33,0,0,1,2.21,5.44v.09a7.8,7.8,0,0,1-4.69,7.32c3.84,1.32,6.52,3.52,6.52,8v.09c0,5.87-4.83,9-12.15,9H177a2.86,2.86,0,0,1-2.91-2.91Zm13.56,10.93c3.71,0,6.2-1.45,6.2-4.46v-.09c0-2.58-2.07-4.18-5.77-4.18h-8.31v8.73Zm1.69,13.89c3.94,0,6.34-1.55,6.34-4.51v-.09c0-2.77-2.21-4.41-6.76-4.41h-9.15v9Z"></path>
</svg>
